<?xml version="1.0" encoding="iso-8859-1"?>
<!-- Generator: Adobe Illustrator 19.0.0, SVG Export Plug-In . SVG Version: 6.00 Build 0)  -->
<svg xmlns="http://www.w3.org/2000/svg" xmlns:xlink="http://www.w3.org/1999/xlink" version="1.1" id="Capa_1" x="0px" y="0px" viewBox="0 0 512 512" style="enable-background:new 0 0 512 512;" xml:space="preserve" width="512px" height="512px">
<g>
	<g>
		<path d="M304,304H104c-2.122,0-4.156,0.844-5.656,2.344l-96,96l11.312,11.312L107.312,320H295.2c-1.664,9.496-6.888,24-23.2,24    h-88v16h88c31.64,0,40-31.4,40-48C312,307.582,308.418,304,304,304z" fill="#0e74bc"/>
	</g>
</g>
<g>
	<g>
		<path d="M405.656,250.336c-3.124-3.123-8.188-3.123-11.312,0l-72,72l11.312,11.312l65.712-65.704    c10.832,14.369,8.632,34.682-5.024,46.4L300.688,408H136c-2.122,0-4.156,0.844-5.656,2.344l-56,56l11.312,11.312L139.312,424H304    c2.123-0.003,4.157-0.849,5.656-2.352l96-96C435.448,295.864,418.68,263.36,405.656,250.336z" fill="#0e74bc"/>
	</g>
</g>
<g>
	<g>
		<path d="M256,0C114.615,0,0,114.615,0,256h16C16,123.452,123.452,16,256,16s240,107.452,240,240S388.548,496,256,496v16    c141.385,0,256-114.615,256-256S397.385,0,256,0z" fill="#0e74bc"/>
	</g>
</g>
<g>
	<g>
		<path d="M336,152h-56v16h36.688l-80,80H200v16h40c2.122,0,4.156-0.844,5.656-2.344L328,179.312V208h16v-48    C344,155.582,340.418,152,336,152z" fill="#0e74bc"/>
	</g>
</g>
<g>
	<g>
		<path d="M88,248c-2.122,0-4.156,0.844-5.656,2.344l-24,24l11.312,11.312L91.312,264H152v-16H88z" fill="#0e74bc"/>
	</g>
</g>
<g>
	<g>
		<rect x="168" y="248" width="16" height="16" fill="#0e74bc"/>
	</g>
</g>
<g>
	<g>
		<path d="M64.776,182.456l15.264,4.8C102.88,113.741,171.019,63.738,248,64V48C164.026,47.72,89.697,102.264,64.776,182.456z" fill="#0e74bc"/>
	</g>
</g>
<g>
</g>
<g>
</g>
<g>
</g>
<g>
</g>
<g>
</g>
<g>
</g>
<g>
</g>
<g>
</g>
<g>
</g>
<g>
</g>
<g>
</g>
<g>
</g>
<g>
</g>
<g>
</g>
<g>
</g>
</svg>
