<?xml version="1.0" encoding="iso-8859-1"?>
<!-- Generator: Adobe Illustrator 19.0.0, SVG Export Plug-In . SVG Version: 6.00 Build 0)  -->
<svg xmlns="http://www.w3.org/2000/svg" xmlns:xlink="http://www.w3.org/1999/xlink" version="1.1" id="Capa_1" x="0px" y="0px" viewBox="0 0 512.005 512.005" style="enable-background:new 0 0 512.005 512.005;" xml:space="preserve" width="512px" height="512px">
<g>
	<g>
		<g>
			<path d="M409.602,244.089V102.4c0-0.183-0.093-0.335-0.104-0.516c-0.107-2.052-0.947-3.997-2.369-5.481l-0.033-0.043     L313.242,2.507l-0.038-0.03c-1.494-1.378-3.41-2.211-5.438-2.364C307.57,0.101,307.402,0,307.202,0H59.735     c-14.132,0.015-25.585,11.468-25.6,25.6v426.667c0.015,14.132,11.468,25.585,25.6,25.6h179.78     c41.477,34.978,99.017,43.859,149.109,23.013c50.092-20.845,84.345-67.925,88.763-122.001     C481.805,324.802,455.647,272.788,409.602,244.089z M315.735,29.133l64.733,64.733h-56.2c-4.711-0.005-8.529-3.823-8.533-8.533     V29.133z M59.735,460.8c-4.711-0.005-8.529-3.823-8.533-8.533V25.6c0.005-4.711,3.822-8.529,8.533-8.533h238.933v68.267     c0.015,14.132,11.468,25.585,25.6,25.6h68.267v123.953c-34.107-15.643-72.996-17.254-108.281-4.486h-96.519     c-14.109,0.07-25.53,11.491-25.6,25.6c0.015,14.132,11.468,25.585,25.6,25.6h28.011c-7.674,10.495-13.898,21.976-18.505,34.133     h-9.506c-14.109,0.07-25.53,11.491-25.6,25.6c0.015,14.132,11.468,25.585,25.6,25.6c-0.009,34.421,12.284,67.712,34.661,93.867     H59.735z M250.691,247.467c-7.352,5.05-14.227,10.763-20.538,17.067h-42.418c-4.711-0.005-8.529-3.822-8.533-8.533     c-0.005-2.298,0.938-4.496,2.608-6.075c1.559-1.591,3.698-2.479,5.925-2.458H250.691z M191.959,332.8     c-1.386,5.621-2.43,11.32-3.128,17.067h-1.096c-4.711-0.005-8.529-3.822-8.533-8.533c-0.005-2.298,0.938-4.496,2.608-6.075     c1.559-1.591,3.698-2.479,5.925-2.458H191.959z M332.802,494.933c-70.692,0-128-57.308-128-128s57.308-128,128-128     c70.66,0.079,127.921,57.34,128,128C460.802,437.626,403.494,494.933,332.802,494.933z" fill="#0e74bc"/>
			<path d="M119.468,59.733h-17.067c-14.132,0.015-25.585,11.468-25.6,25.6V102.4c0.015,14.132,11.468,25.585,25.6,25.6h17.067     c14.132-0.015,25.585-11.468,25.6-25.6V85.333C145.053,71.201,133.601,59.749,119.468,59.733z M128.002,102.4     c-0.005,4.711-3.822,8.529-8.533,8.533h-17.067c-4.711-0.005-8.529-3.822-8.533-8.533V85.333     c0.005-4.711,3.822-8.529,8.533-8.533h17.067c4.711,0.005,8.529,3.822,8.533,8.533V102.4z" fill="#0e74bc"/>
			<path d="M187.735,110.933h68.267c14.138,0,25.6-11.462,25.6-25.6s-11.461-25.6-25.6-25.6h-68.267     c-14.138,0-25.6,11.461-25.6,25.6S173.597,110.933,187.735,110.933z M187.735,76.8h68.267c4.713,0,8.533,3.82,8.533,8.533     s-3.82,8.533-8.533,8.533h-68.267c-4.713,0-8.533-3.821-8.533-8.533S183.022,76.8,187.735,76.8z" fill="#0e74bc"/>
			<path d="M119.468,145.067h-17.067c-14.132,0.015-25.585,11.468-25.6,25.6v17.067c0.015,14.132,11.468,25.585,25.6,25.6h17.067     c14.132-0.015,25.585-11.468,25.6-25.6v-17.067C145.053,156.535,133.601,145.082,119.468,145.067z M128.002,187.733     c-0.005,4.711-3.822,8.529-8.533,8.533h-17.067c-4.711-0.005-8.529-3.822-8.533-8.533v-17.067     c0.005-4.711,3.822-8.529,8.533-8.533h17.067c4.711,0.005,8.529,3.822,8.533,8.533V187.733z" fill="#0e74bc"/>
			<path d="M187.735,196.267h162.133c14.138,0,25.6-11.461,25.6-25.6s-11.462-25.6-25.6-25.6H187.735     c-14.138,0-25.6,11.462-25.6,25.6S173.597,196.267,187.735,196.267z M187.735,162.133h162.133c4.713,0,8.533,3.82,8.533,8.533     s-3.821,8.533-8.533,8.533H187.735c-4.713,0-8.533-3.82-8.533-8.533S183.022,162.133,187.735,162.133z" fill="#0e74bc"/>
			<path d="M119.468,230.4h-17.067c-14.132,0.015-25.585,11.468-25.6,25.6v17.067c0.015,14.132,11.468,25.585,25.6,25.6h17.067     c14.132-0.015,25.585-11.468,25.6-25.6V256C145.053,241.868,133.601,230.415,119.468,230.4z M128.002,273.067     c-0.005,4.711-3.822,8.529-8.533,8.533h-17.067c-4.711-0.005-8.529-3.823-8.533-8.533V256c0.005-4.711,3.822-8.529,8.533-8.533     h17.067c4.711,0.005,8.529,3.822,8.533,8.533V273.067z" fill="#0e74bc"/>
			<path d="M119.468,315.733h-17.067c-14.132,0.015-25.585,11.468-25.6,25.6V358.4c0.015,14.132,11.468,25.585,25.6,25.6h17.067     c14.132-0.015,25.585-11.468,25.6-25.6v-17.067C145.053,327.201,133.601,315.749,119.468,315.733z M128.002,358.4     c-0.005,4.711-3.822,8.529-8.533,8.533h-17.067c-4.711-0.005-8.529-3.822-8.533-8.533v-17.067     c0.005-4.711,3.822-8.529,8.533-8.533h17.067c4.711,0.005,8.529,3.823,8.533,8.533V358.4z" fill="#0e74bc"/>
			<path d="M362.805,271.474c-26.044-12.739-57.293-7.64-77.937,12.717c-13.054,12.799-20.386,30.327-20.333,48.608     c0,4.713,3.82,8.533,8.533,8.533s8.533-3.821,8.533-8.533c-0.04-13.711,5.459-26.857,15.25-36.454     c9.66-9.78,22.942-15.118,36.683-14.742c27.493,0.891,49.572,22.974,50.458,50.467c0.282,24.216-16.384,45.341-40,50.704     c-11.549,2.701-19.719,12.998-19.725,24.858v10.5c0,4.713,3.82,8.533,8.533,8.533s8.533-3.82,8.533-8.533v-10.5     c-0.037-3.882,2.604-7.278,6.375-8.2c28.294-6.329,49.505-29.836,52.901-58.629C404.008,312.011,388.85,284.213,362.805,271.474z     " fill="#0e74bc"/>
			<path d="M332.802,443.733c-2.263-0.001-4.434,0.898-6.035,2.499c-1.6,1.6-2.499,3.771-2.499,6.035v8.533     c0,4.713,3.82,8.533,8.533,8.533s8.533-3.82,8.533-8.533v-8.533c0.001-2.263-0.898-4.434-2.499-6.035     C337.236,444.632,335.065,443.733,332.802,443.733z" fill="#0e74bc"/>
		</g>
	</g>
</g>
<g>
</g>
<g>
</g>
<g>
</g>
<g>
</g>
<g>
</g>
<g>
</g>
<g>
</g>
<g>
</g>
<g>
</g>
<g>
</g>
<g>
</g>
<g>
</g>
<g>
</g>
<g>
</g>
<g>
</g>
</svg>
